<svg xmlns="http://www.w3.org/2000/svg" width="77.434" height="39.629" viewBox="0 0 77.434 39.629">
  <g id="Group_7957" data-name="Group 7957" transform="translate(-504.988 -153.305)">
    <path id="Path_2215" data-name="Path 2215" d="M844.8,271.963a.906.906,0,0,0-.917.007,1.23,1.23,0,0,0-.362.256.549.549,0,0,0,0,.743,1.264,1.264,0,0,0,.362.256.9.9,0,0,0,.917.007A.74.74,0,0,0,844.8,271.963Z" transform="translate(-264.151 -92.533)" fill="#ffde00"/>
    <path id="Path_2216" data-name="Path 2216" d="M734.622,161.159c7.108.01,13.111.056,17.481.136,2.774.051,4.678.109,5.989.171l-24.031-6.115C734.213,157.087,734.413,159.189,734.622,161.159Z" transform="translate(-178.819 -1.598)" fill="#ff8500"/>
    <path id="Path_2217" data-name="Path 2217" d="M546.24,288.406h0c-14.641,0-21.555-.2-24.831-.448,6.854,2.021,26.293,7.121,54.88,9.473l-5.108-9.176C563.239,288.34,554.322,288.406,546.24,288.406Z" transform="translate(-12.817 -105.113)" fill="#ff8500"/>
    <path id="Path_2218" data-name="Path 2218" d="M583.212,184.116c-1.006-.334-11.721-.533-28.831-.533-21.532,0-46.135.313-47.01.6-.073.04-.758.684-.585,10.349.089,4.967.385,10.243.571,11.206.461.308,4.721.806,27.446.806,21.408,0,46.794-.439,48.023-.519C583.615,204.929,583.466,185.816,583.212,184.116Z" transform="translate(-1.381 -23.636)" fill="#fedc00"/>
    <path id="Path_2219" data-name="Path 2219" d="M582.2,160.332v0s0-.007,0-.009c-.022-.093-.044-.187-.664-.277l-26.458-6.732a.194.194,0,0,0-.241.2c.079.911.305,3.462.578,6.045H553c-20.563,0-46.361.289-47.157.626-.249.106-1.007.427-.827,10.659.092,5.225.4,10.495.589,11.375h0c.024.109.056.254.927.4a202.708,202.708,0,0,0,21.8,5.317l-.077.177a1.324,1.324,0,0,1,.389.076l.077-.178a324.1,324.1,0,0,0,33.562,4.593l-.241.041a2.289,2.289,0,0,1,.634.285l1.176-.2.006,0a.2.2,0,0,0,.054-.019l0,0a.191.191,0,0,0,.041-.032l.012-.014a.186.186,0,0,0,.013-.016.178.178,0,0,0,.008-.016l.009-.02a.188.188,0,0,0,.01-.04.13.13,0,0,0,0-.013.027.027,0,0,1,0,0,.2.2,0,0,0-.005-.058s0-.009-.005-.013a.23.23,0,0,0-.013-.034l-5.182-9.31c12.412-.135,22.331-.317,22.728-.37a.318.318,0,0,0,.22-.149c.517-.75.649-6.551.668-11.285C582.441,166.372,582.331,160.95,582.2,160.332Zm-26.955-6.577,24.031,6.115c-1.31-.063-3.215-.121-5.989-.171-4.37-.08-10.373-.126-17.481-.136C555.595,157.591,555.394,155.489,555.242,153.754Zm8.228,38.564c-28.586-2.353-48.026-7.452-54.88-9.473,3.276.244,10.19.448,24.831.448h0c8.081,0,17-.066,24.94-.151Zm17.974-9.932c-1.229.079-26.615.519-48.023.519-22.725,0-26.985-.5-27.446-.806-.186-.962-.482-6.239-.571-11.206-.173-9.665.512-10.309.585-10.349.874-.285,25.478-.6,47.01-.6,17.11,0,27.825.2,28.831.533C582.085,162.18,582.234,181.294,581.444,182.386Z" transform="translate(0)" fill="#282827"/>
    <path id="Path_2220" data-name="Path 2220" d="M525.013,190.83a12.922,12.922,0,0,0-4.8.072c-1.7.169-3.371.407-5.056.659-.515.077-.334.808.115.848,1.648.148,3.288.283,4.941.35a13.013,13.013,0,0,0,4.8-.2A.9.9,0,0,0,525.013,190.83Z" transform="translate(-7.694 -29.127)" fill="#ffde00"/>
    <path id="Path_2221" data-name="Path 2221" d="M574.014,190.092a5.041,5.041,0,0,0-2.78.256.572.572,0,0,0,0,1.1,3.574,3.574,0,0,0,2.965.06A.781.781,0,0,0,574.014,190.092Z" transform="translate(-51.394 -28.616)" fill="#ffde00"/>
    <path id="Path_2222" data-name="Path 2222" d="M806.961,271.261a9.938,9.938,0,0,0-3.906-.058,12.53,12.53,0,0,0-3.739.711c-.54.262-.306.973.15,1.149a11.845,11.845,0,0,0,3.52.363,10.218,10.218,0,0,0,3.975-.354A.946.946,0,0,0,806.961,271.261Z" transform="translate(-229.515 -91.905)" fill="#ffde00"/>
    <text id="Adu.in" transform="translate(518.371 174.68)" fill="#282827" font-size="15" font-family="ComicSansMS, Comic Sans MS"><tspan x="0" y="0">Adu.in</tspan></text>
    <g id="Group_3143" data-name="Group 3143" transform="translate(570.488 164.739)">
      <path id="Path_2223" data-name="Path 2223" d="M810.579,230.638c-.62-.476-1.453-.243-2.165-.143a3.56,3.56,0,0,0-1.915.562.613.613,0,0,0,.123.952,4.04,4.04,0,0,0,2.046.361,2.545,2.545,0,0,0,2.079-.427A.844.844,0,0,0,810.579,230.638Z" transform="translate(-805.713 -224.881)" fill="#282827"/>
      <path id="Path_2224" data-name="Path 2224" d="M805.5,205.435a1.967,1.967,0,0,0-1.179.9c-.277.348-.805.81-.761,1.292a.441.441,0,0,0,.32.421c.509.088.925-.3,1.325-.566.487-.328.969-.62,1.115-1.229A.676.676,0,0,0,805.5,205.435Z" transform="translate(-803.555 -205.424)" fill="#282827"/>
      <path id="Path_2225" data-name="Path 2225" d="M806.7,255.357c-.447-.222-1.5-.811-1.733,0-.173.592.476,1.03.858,1.371.459.408,1.068.994,1.739.744a.718.718,0,0,0,.516-.678C808.062,256,807.311,255.662,806.7,255.357Z" transform="translate(-804.633 -244.078)" fill="#282827"/>
    </g>
    <g id="Group_3144" data-name="Group 3144" transform="translate(509.985 164.739)">
      <path id="Path_2226" data-name="Path 2226" d="M528.174,234.217c.62.476,1.453.243,2.164.143a3.562,3.562,0,0,0,1.915-.562.613.613,0,0,0-.123-.952,4.037,4.037,0,0,0-2.046-.361,2.543,2.543,0,0,0-2.079.427A.843.843,0,0,0,528.174,234.217Z" transform="translate(-527.763 -226.524)" fill="#282827"/>
      <path id="Path_2227" data-name="Path 2227" d="M539.97,257.333a1.967,1.967,0,0,0,1.179-.9c.277-.348.805-.81.761-1.292a.441.441,0,0,0-.32-.421c-.509-.088-.925.3-1.325.566-.487.328-.969.62-1.115,1.229A.676.676,0,0,0,539.97,257.333Z" transform="translate(-536.635 -243.894)" fill="#282827"/>
      <path id="Path_2228" data-name="Path 2228" d="M537.5,207.6c.447.222,1.5.811,1.733,0,.173-.592-.476-1.03-.858-1.371-.459-.408-1.068-.994-1.739-.744a.718.718,0,0,0-.516.678C536.132,206.954,536.882,207.291,537.5,207.6Z" transform="translate(-534.283 -205.424)" fill="#282827"/>
    </g>
  </g>
</svg>
