<svg xmlns="http://www.w3.org/2000/svg" width="125.766" height="64.363" viewBox="0 0 125.766 64.363">
  <g id="Group_7957" data-name="Group 7957" transform="translate(-504.988 -153.305)">
    <path id="Path_2215" data-name="Path 2215" d="M845.689,272.039a1.472,1.472,0,0,0-1.49.011,2,2,0,0,0-.589.417.891.891,0,0,0,0,1.207,2.054,2.054,0,0,0,.589.417,1.464,1.464,0,0,0,1.49.011A1.2,1.2,0,0,0,845.689,272.039Z" transform="translate(-217.817 -76.302)" fill="#ffde00"/>
    <path id="Path_2216" data-name="Path 2216" d="M734.971,164.784c11.545.016,21.295.091,28.393.221,4.505.082,7.6.176,9.726.278l-39.029-9.931C734.308,158.17,734.633,161.584,734.971,164.784Z" transform="translate(-147.453 -1.318)" fill="#ff8500"/>
    <path id="Path_2217" data-name="Path 2217" d="M561.74,288.686h0c-23.779,0-35.008-.332-40.329-.728,11.132,3.283,42.7,11.565,89.133,15.386l-8.3-14.9C589.349,288.579,574.865,288.686,561.74,288.686Z" transform="translate(-10.569 -86.675)" fill="#ff8500"/>
    <path id="Path_2218" data-name="Path 2218" d="M630.931,184.449c-1.634-.543-19.036-.866-46.826-.866-34.972,0-74.931.508-76.351.97-.119.065-1.232,1.111-.951,16.808.144,8.067.626,16.637.928,18.2.749.5,7.667,1.309,44.576,1.309,34.77,0,76-.714,78-.843C631.586,218.253,631.344,187.209,630.931,184.449Z" transform="translate(-1.139 -19.49)" fill="#fedc00"/>
    <path id="Path_2219" data-name="Path 2219" d="M630.387,164.717v0s0-.011,0-.015c-.036-.151-.072-.3-1.078-.449l-42.971-10.934a.315.315,0,0,0-.392.332c.128,1.479.5,5.622.938,9.819l-3.914,0c-33.4,0-75.3.469-76.59,1.017-.4.172-1.636.694-1.344,17.313.149,8.486.645,17.045.956,18.474h0c.038.177.091.413,1.506.654a329.215,329.215,0,0,0,35.4,8.635l-.124.288a2.151,2.151,0,0,1,.633.124l.125-.29a526.39,526.39,0,0,0,54.51,7.459l-.391.067a3.718,3.718,0,0,1,1.03.464l1.91-.327.01,0a.319.319,0,0,0,.088-.031l.006,0a.305.305,0,0,0,.066-.052l.019-.023a.3.3,0,0,0,.021-.026.285.285,0,0,0,.012-.026c.006-.011.011-.022.015-.033a.306.306,0,0,0,.016-.065.209.209,0,0,0,.006-.021.046.046,0,0,1,0-.007.332.332,0,0,0-.008-.094c0-.007-.006-.014-.008-.021a.379.379,0,0,0-.022-.056l-8.416-15.12c20.159-.22,36.269-.516,36.914-.6a.517.517,0,0,0,.358-.241c.84-1.218,1.054-10.639,1.085-18.328C630.783,174.528,630.6,165.722,630.387,164.717Zm-43.779-10.683,39.029,9.931c-2.128-.1-5.221-.2-9.727-.278-7.1-.13-16.848-.205-28.393-.221C587.181,160.267,586.856,156.853,586.608,154.034Zm13.364,62.635c-46.429-3.821-78-12.1-89.133-15.386,5.322.4,16.551.728,40.33.728h0c13.126,0,27.609-.107,40.506-.245Zm29.193-16.131c-2,.129-43.226.843-78,.843-36.909,0-43.828-.81-44.576-1.309-.3-1.563-.783-10.133-.928-18.2-.281-15.7.832-16.744.951-16.808,1.42-.462,41.38-.97,76.351-.97,27.789,0,45.191.323,46.826.866C630.2,167.72,630.446,198.763,629.164,200.538Z" transform="translate(0)" fill="#282827"/>
    <path id="Path_2220" data-name="Path 2220" d="M531.36,190.963c-2.549-.716-5.208-.141-7.8.118-2.754.275-5.475.661-8.212,1.07-.836.125-.543,1.312.186,1.377,2.677.24,5.339.46,8.025.569,2.586.1,5.3.538,7.8-.323A1.469,1.469,0,0,0,531.36,190.963Z" transform="translate(-6.345 -24.018)" fill="#ffde00"/>
    <path id="Path_2221" data-name="Path 2221" d="M576,190.173c-1.484-.543-3.049.1-4.516.417a.929.929,0,0,0,0,1.779c1.564.488,3.306,1.006,4.815.1A1.268,1.268,0,0,0,576,190.173Z" transform="translate(-42.379 -23.597)" fill="#ffde00"/>
    <path id="Path_2222" data-name="Path 2222" d="M811.928,271.4a16.141,16.141,0,0,0-6.344-.095c-1.975.269-4.263.277-6.073,1.155-.877.426-.5,1.58.244,1.866,1.723.667,3.887.491,5.717.59a16.6,16.6,0,0,0,6.456-.574A1.537,1.537,0,0,0,811.928,271.4Z" transform="translate(-189.256 -75.784)" fill="#ffde00"/>
    <text id="Adu.in" transform="translate(526.724 185.411)" fill="#282827" font-size="23" font-family="ComicSansMS, Comic Sans MS"><tspan x="0" y="0">Adu.in</tspan></text>
    <g id="Group_3143" data-name="Group 3143" transform="translate(611.369 171.875)">
      <path id="Path_2223" data-name="Path 2223" d="M813.237,230.818c-1.007-.774-2.361-.4-3.516-.233a5.781,5.781,0,0,0-3.11.912,1,1,0,0,0,.2,1.546c.868.63,2.284.524,3.323.587,1.242.075,2.4.2,3.376-.694A1.37,1.37,0,0,0,813.237,230.818Z" transform="translate(-805.334 -221.468)" fill="#282827"/>
      <path id="Path_2224" data-name="Path 2224" d="M806.71,205.442a3.2,3.2,0,0,0-1.915,1.466c-.45.565-1.308,1.316-1.235,2.1a.716.716,0,0,0,.52.683c.827.144,1.5-.483,2.151-.92.79-.532,1.573-1.006,1.811-2A1.1,1.1,0,0,0,806.71,205.442Z" transform="translate(-803.555 -205.424)" fill="#282827"/>
      <path id="Path_2225" data-name="Path 2225" d="M807.8,255.617c-.726-.36-2.431-1.317-2.814-.006-.281.961.773,1.673,1.394,2.226.745.663,1.735,1.614,2.825,1.208a1.167,1.167,0,0,0,.838-1.1C810.013,256.659,808.794,256.112,807.8,255.617Z" transform="translate(-804.444 -237.298)" fill="#282827"/>
    </g>
    <g id="Group_3144" data-name="Group 3144" transform="translate(513.103 171.875)">
      <path id="Path_2226" data-name="Path 2226" d="M528.432,235.317c1.007.774,2.361.4,3.515.233a5.784,5.784,0,0,0,3.11-.912,1,1,0,0,0-.2-1.546c-.868-.63-2.284-.525-3.323-.587-1.243-.075-2.4-.2-3.376.694A1.37,1.37,0,0,0,528.432,235.317Z" transform="translate(-527.763 -222.823)" fill="#282827"/>
      <path id="Path_2227" data-name="Path 2227" d="M540.5,258.973a3.194,3.194,0,0,0,1.915-1.466c.45-.565,1.308-1.316,1.235-2.1a.716.716,0,0,0-.52-.683c-.827-.144-1.5.483-2.151.92-.79.532-1.573,1.006-1.811,2A1.1,1.1,0,0,0,540.5,258.973Z" transform="translate(-535.078 -237.146)" fill="#282827"/>
      <path id="Path_2228" data-name="Path 2228" d="M538.358,208.951c.726.36,2.431,1.317,2.814.006.282-.961-.773-1.673-1.394-2.226-.745-.663-1.735-1.615-2.824-1.208a1.166,1.166,0,0,0-.838,1.1C536.142,207.909,537.361,208.456,538.358,208.951Z" transform="translate(-533.139 -205.424)" fill="#282827"/>
    </g>
  </g>
</svg>
