<svg xmlns="http://www.w3.org/2000/svg" xmlns:xlink="http://www.w3.org/1999/xlink" width="422" height="209" viewBox="0 0 422 209">
  <defs>
    <clipPath id="clip-Artboard_1">
      <rect width="422" height="209"/>
    </clipPath>
  </defs>
  <g id="Artboard_1" data-name="Artboard – 1" clip-path="url(#clip-Artboard_1)">
    <rect width="422" height="209" fill="#fff"/>
    <g id="Group_7957" data-name="Group 7957" transform="translate(-458 -134)">
      <path id="Path_2215" data-name="Path 2215" d="M849.87,272.395a4.132,4.132,0,0,0-4.182.031,5.609,5.609,0,0,0-1.652,1.169,2.5,2.5,0,0,0,0,3.389,5.765,5.765,0,0,0,1.652,1.169,4.111,4.111,0,0,0,4.182.031A3.374,3.374,0,0,0,849.87,272.395Z" fill="#ffde00"/>
      <path id="Path_2216" data-name="Path 2216" d="M736.616,181.824c32.4.044,59.766.256,79.686.62,12.644.231,21.325.495,27.3.781L734.061,155.352C734.755,163.262,735.667,172.843,736.616,181.824Z" fill="#ff8500"/>
      <path id="Path_2217" data-name="Path 2217" d="M634.6,290H634.6c-66.737,0-98.253-.931-113.188-2.042,31.242,9.214,119.853,32.458,250.159,43.183l-23.282-41.829C712.088,289.7,671.44,290,634.6,290Z" fill="#ff8500"/>
      <path id="Path_2218" data-name="Path 2218" d="M855.259,186.013c-4.587-1.523-53.427-2.43-131.42-2.43-98.151,0-210.3,1.425-214.286,2.722-.334.181-3.456,3.119-2.668,47.174.4,22.64,1.756,46.693,2.6,51.079,2.1,1.4,21.519,3.674,125.107,3.674,97.584,0,213.3-2,218.9-2.365C857.1,280.886,856.418,193.761,855.259,186.013Z" fill="#fedc00"/>
      <path id="Path_2219" data-name="Path 2219" d="M856.93,185.334l0-.011c0-.012-.005-.031-.008-.042-.1-.423-.2-.852-3.027-1.261l-120.6-30.688a.884.884,0,0,0-1.1.933c.36,4.151,1.391,15.779,2.633,27.557q-5.4-.006-10.986-.006c-93.731,0-211.33,1.316-214.955,2.853-1.136.482-4.591,1.947-3.771,48.589.418,23.816,1.811,47.838,2.684,51.85h0c.108.5.255,1.158,4.227,1.835,10.794,3.423,45.228,13.729,99.355,24.236l-.349.808a6.028,6.028,0,0,1,1.775.348c.117-.27.235-.545.351-.813a1477.367,1477.367,0,0,0,152.986,20.935l-1.1.187a10.43,10.43,0,0,1,2.891,1.3c3.3-.562,5.2-.891,5.36-.918.01,0,.018-.008.027-.01a.893.893,0,0,0,.248-.087l.017-.012a.88.88,0,0,0,.186-.147c.02-.021.036-.042.054-.064a.845.845,0,0,0,.06-.073c.015-.023.022-.049.035-.073s.03-.061.043-.093a.884.884,0,0,0,.045-.182c0-.021.014-.039.016-.06a.139.139,0,0,1,0-.02.9.9,0,0,0-.023-.264c-.006-.021-.017-.039-.023-.06a.992.992,0,0,0-.061-.156L750.3,289.291c56.578-.616,101.792-1.447,103.6-1.686a1.45,1.45,0,0,0,1-.677c2.358-3.419,2.957-29.86,3.045-51.439C858.041,212.869,857.538,188.154,856.93,185.334ZM734.061,155.352,843.6,183.225c-5.973-.286-14.654-.55-27.3-.781-19.92-.364-47.285-.576-79.686-.62C735.667,172.843,734.755,163.262,734.061,155.352Zm37.506,175.789c-130.306-10.725-218.917-33.969-250.159-43.183C536.343,289.069,567.859,290,634.6,290h.006c36.838,0,77.486-.3,113.683-.688ZM853.5,285.867c-5.6.362-121.318,2.365-218.9,2.365-103.588,0-123.006-2.272-125.107-3.674-.848-4.386-2.2-28.439-2.6-51.079-.788-44.055,2.334-46.993,2.668-47.174,3.986-1.3,116.135-2.722,214.286-2.722,77.993,0,126.833.907,131.42,2.43C856.418,193.761,857.1,280.886,853.5,285.867Z" fill="#282827"/>
      <path id="Path_2220" data-name="Path 2220" d="M561.194,191.589c-7.153-2.009-14.616-.4-21.878.33-7.728.771-15.367,1.854-23.047,3-2.346.351-1.524,3.682.523,3.866,7.513.675,14.986,1.291,22.524,1.6,7.258.294,14.887,1.509,21.878-.906C564.924,198.192,565.262,192.732,561.194,191.589Z" fill="#ffde00"/>
      <path id="Path_2221" data-name="Path 2221" d="M585.356,190.552c-4.166-1.524-8.557.291-12.674,1.169-2.625.56-2.319,4.271,0,4.994,4.389,1.369,9.278,2.823,13.515.274C588.96,195.326,588.152,191.575,585.356,190.552Z" fill="#ffde00"/>
      <path id="Path_2222" data-name="Path 2222" d="M835.275,272.055c-6.017-1.525-11.709-1.1-17.805-.266-5.544.755-11.965.777-17.044,3.242-2.462,1.2-1.394,4.434.685,5.238,4.837,1.871,10.911,1.377,16.045,1.655,6.225.337,12.157.428,18.119-1.612C839.117,279,839.6,273.15,835.275,272.055Z" fill="#ffde00"/>
      <text id="Adu.in" transform="translate(565.991 258.248)" fill="#282827" font-size="77.341" font-family="ComicSansMS, Comic Sans MS"><tspan x="0" y="0">Adu.in</tspan></text>
      <g id="Group_3143" data-name="Group 3143">
        <path id="Path_2223" data-name="Path 2223" d="M825.735,231.666c-2.825-2.171-6.625-1.109-9.867-.654-3.025.426-6.346.515-8.729,2.56-1.464,1.255-.774,3.372.559,4.338,2.437,1.768,6.41,1.471,9.327,1.647,3.487.21,6.731.566,9.475-1.947C828.479,235.8,827.563,233.073,825.735,231.666Z" fill="#282827"/>
        <path id="Path_2224" data-name="Path 2224" d="M812.409,205.474c-2.488.4-3.9,2.26-5.375,4.114-1.264,1.585-3.671,3.694-3.467,5.888a2.009,2.009,0,0,0,1.46,1.918c2.32.4,4.218-1.356,6.038-2.581,2.218-1.493,4.415-2.824,5.082-5.6C816.728,206.79,814.681,205.109,812.409,205.474Z" fill="#282827"/>
        <path id="Path_2225" data-name="Path 2225" d="M812.966,256.837c-2.038-1.011-6.822-3.7-7.9-.016-.79,2.7,2.17,4.7,3.913,6.248,2.091,1.861,4.87,4.531,7.927,3.39a3.274,3.274,0,0,0,2.352-3.09C819.185,259.761,815.764,258.226,812.966,256.837Z" fill="#282827"/>
      </g>
      <g id="Group_3144" data-name="Group 3144">
        <path id="Path_2226" data-name="Path 2226" d="M529.64,240.492c2.825,2.171,6.625,1.109,9.866.654,3.026-.426,6.347-.516,8.73-2.56,1.464-1.256.774-3.372-.559-4.338-2.437-1.768-6.41-1.472-9.327-1.647-3.488-.21-6.731-.567-9.475,1.947C526.9,236.36,527.811,239.085,529.64,240.492Z" fill="#282827"/>
        <path id="Path_2227" data-name="Path 2227" d="M542.966,266.684c2.488-.4,3.9-2.26,5.375-4.114,1.264-1.585,3.671-3.694,3.467-5.888a2.009,2.009,0,0,0-1.46-1.918c-2.32-.4-4.218,1.356-6.038,2.581-2.218,1.493-4.415,2.824-5.082,5.6C538.647,265.368,540.694,267.049,542.966,266.684Z" fill="#282827"/>
        <path id="Path_2228" data-name="Path 2228" d="M542.409,215.321c2.038,1.011,6.822,3.7,7.9.016.79-2.7-2.17-4.7-3.913-6.248-2.091-1.861-4.87-4.532-7.927-3.39a3.273,3.273,0,0,0-2.352,3.09C536.19,212.4,539.611,213.932,542.409,215.321Z" fill="#282827"/>
      </g>
    </g>
  </g>
</svg>
